<?xml version="1.0" standalone="no"?>
<!DOCTYPE svg PUBLIC "-//W3C//DTD SVG 20010904//EN"
 "http://www.w3.org/TR/2001/REC-SVG-20010904/DTD/svg10.dtd">
<svg version="1.0" xmlns="http://www.w3.org/2000/svg"
 width="700.000000pt" height="700.000000pt" viewBox="0 0 700.000000 700.000000"
 preserveAspectRatio="xMidYMid meet">
<metadata>
Created by potrace 1.14, written by Peter Selinger 2001-2017
</metadata>
<g transform="translate(0.000000,700.000000) scale(0.100000,-0.100000)"
fill="#000000" stroke="none">
<path d="M5930 6987 c-91 -26 -173 -96 -212 -182 -20 -44 -23 -70 -26 -202
l-4 -153 -881 0 c-485 0 -1472 -3 -2193 -7 l-1312 -6 -3 154 c-4 144 -6 158
-32 210 -32 67 -99 132 -165 162 -67 30 -189 30 -253 -2 -68 -32 -120 -81
-154 -142 -29 -53 -30 -58 -33 -215 l-4 -161 -116 -6 c-159 -7 -239 -36 -350
-126 -61 -49 -130 -149 -161 -234 l-26 -72 3 -2490 c3 -2113 5 -2499 17 -2553
41 -178 184 -333 364 -395 l66 -22 670 3 670 3 30 29 c40 41 41 98 2 138 l-27
27 -668 5 c-659 5 -668 5 -714 27 -71 32 -141 103 -174 176 l-29 62 -3 2118
-2 2117 888 0 c489 0 1680 3 2648 7 l1759 6 33 33 c52 52 40 128 -25 159 -32
15 -247 16 -2669 9 l-2635 -7 3 264 3 264 29 58 c62 122 156 178 307 185 l97
4 4 -148 c3 -134 6 -154 29 -204 50 -107 128 -168 242 -189 110 -20 215 17
294 103 70 77 83 122 83 292 l0 141 1268 6 c697 4 1684 7 2194 7 l926 0 4
-157 c3 -148 5 -161 30 -209 35 -67 115 -138 181 -161 75 -25 171 -22 239 9
77 36 123 80 160 156 32 65 33 71 36 214 l4 148 84 0 c148 0 261 -66 321 -188
l28 -57 3 -262 3 -263 -123 0 c-141 0 -165 -8 -192 -63 -15 -32 -16 -42 -6
-68 7 -16 26 -41 42 -54 28 -24 36 -25 159 -25 l129 0 -2 -2132 -3 -2133 -23
-43 c-36 -67 -98 -129 -161 -159 l-56 -28 -660 -5 c-736 -6 -701 -2 -725 -74
-9 -27 -8 -41 4 -71 29 -68 10 -67 735 -62 705 4 686 2 810 64 31 16 87 59
127 98 82 81 135 178 154 285 16 86 5 4935 -11 5020 -29 153 -148 306 -290
373 -92 44 -155 57 -269 57 l-89 0 -3 158 c-3 142 -5 162 -27 206 -67 135
-232 212 -371 173z m139 -213 c56 -33 56 -31 59 -404 2 -229 0 -357 -8 -382
-15 -51 -52 -78 -107 -78 -38 0 -50 5 -79 34 l-34 34 0 372 0 372 34 34 c39
39 89 45 135 18z m-5010 -28 l26 -26 3 -376 3 -375 -35 -35 c-29 -29 -41 -34
-79 -34 -55 0 -92 27 -107 78 -14 53 -13 689 1 731 25 72 132 93 188 37z"/>
<path d="M5848 5453 c-58 -36 -62 -121 -7 -167 29 -25 35 -26 164 -26 74 0
145 4 159 10 31 12 55 47 63 94 5 31 1 40 -30 71 l-35 35 -143 0 c-117 0 -149
-4 -171 -17z"/>
<path d="M3363 4473 c-35 -7 -73 -59 -73 -99 0 -86 36 -104 216 -104 l136 0
34 34 c56 56 42 131 -32 162 -32 13 -224 18 -281 7z"/>
<path d="M4108 4464 c-29 -15 -58 -61 -58 -89 0 -29 30 -74 60 -90 21 -11 62
-15 157 -15 109 0 133 3 159 19 66 40 63 140 -5 175 -42 22 -273 22 -313 0z"/>
<path d="M4854 4446 c-45 -45 -47 -92 -5 -138 l29 -33 152 0 152 0 29 33 c32
36 37 77 15 121 -23 43 -54 51 -202 51 l-136 0 -34 -34z"/>
<path d="M5643 4470 c-70 -28 -73 -145 -5 -181 32 -17 289 -17 321 0 58 31 63
120 10 165 -30 25 -35 26 -167 25 -75 0 -147 -4 -159 -9z"/>
<path d="M1044 4460 c-60 -24 -73 -112 -25 -161 l29 -29 152 0 152 0 29 29
c23 23 29 38 29 71 0 33 -6 48 -29 71 l-29 29 -144 -1 c-79 0 -153 -4 -164 -9z"/>
<path d="M1789 4442 c-26 -24 -32 -36 -32 -72 0 -36 6 -48 32 -72 31 -28 32
-28 175 -28 140 0 145 1 175 26 39 33 50 84 25 122 -32 49 -40 51 -196 52
l-148 0 -31 -28z"/>
<path d="M2567 4459 c-21 -12 -47 -61 -47 -89 0 -35 27 -76 58 -89 20 -9 76
-11 172 -9 141 3 142 3 166 31 35 41 33 99 -5 138 l-29 29 -149 0 c-82 0 -156
-5 -166 -11z"/>
<path d="M1833 3923 c-40 -8 -73 -52 -73 -97 0 -90 40 -109 223 -104 127 3
137 4 161 27 54 51 38 139 -29 167 -33 13 -224 18 -282 7z"/>
<path d="M2572 3910 c-59 -36 -67 -113 -16 -161 24 -23 34 -24 164 -27 180 -4
222 15 222 103 0 84 -44 105 -214 105 -105 0 -128 -3 -156 -20z"/>
<path d="M3338 3913 c-55 -35 -64 -105 -19 -155 l29 -33 152 0 152 0 29 33
c42 46 40 93 -5 138 l-34 34 -138 0 c-112 0 -144 -4 -166 -17z"/>
<path d="M4111 3917 c-14 -6 -34 -27 -44 -45 -17 -29 -18 -39 -8 -73 19 -62
46 -73 181 -77 182 -6 235 19 235 111 0 31 -7 45 -33 68 l-32 29 -138 0 c-89
0 -146 -5 -161 -13z"/>
<path d="M4869 3915 c-56 -30 -63 -125 -12 -165 23 -18 40 -20 175 -20 l150 0
29 29 c23 23 29 38 29 71 0 33 -6 48 -29 71 l-29 29 -144 0 c-104 -1 -150 -5
-169 -15z"/>
<path d="M5619 3901 c-23 -23 -29 -38 -29 -71 0 -33 6 -48 29 -71 l29 -29 141
0 c87 0 150 4 166 12 29 13 55 55 55 88 0 29 -27 77 -49 90 -11 5 -85 10 -166
10 l-147 0 -29 -29z"/>
<path d="M1019 3891 c-47 -47 -33 -132 26 -159 40 -18 278 -16 315 3 59 31 69
107 21 156 l-29 29 -152 0 -152 0 -29 -29z"/>
<path d="M5663 3383 c-35 -7 -73 -59 -73 -99 0 -86 36 -104 216 -104 l136 0
34 34 c56 56 42 131 -32 162 -32 13 -224 18 -281 7z"/>
<path d="M1043 3360 c-61 -37 -71 -99 -24 -152 l29 -33 132 -3 c73 -2 143 -1
157 3 67 16 98 114 52 164 -33 35 -61 41 -192 41 -103 0 -127 -3 -154 -20z"/>
<path d="M1808 3365 c-74 -41 -63 -155 19 -186 41 -15 260 -11 293 6 66 34 79
103 31 157 l-29 33 -144 2 c-113 2 -149 0 -170 -12z"/>
<path d="M4867 3369 c-21 -13 -47 -61 -47 -89 0 -31 29 -76 57 -89 14 -6 85
-11 164 -11 l141 0 29 29 c23 24 29 38 29 74 0 38 -5 49 -31 71 -30 25 -34 26
-177 26 -81 0 -155 -5 -165 -11z"/>
<path d="M3330 3264 c-14 -2 -68 -12 -120 -20 -416 -70 -820 -335 -1065 -699
-262 -389 -342 -894 -215 -1348 79 -283 226 -524 448 -739 592 -571 1520 -609
2157 -88 308 252 509 597 581 995 21 121 25 391 6 510 -110 688 -617 1221
-1297 1365 -75 16 -146 22 -285 25 -102 2 -196 2 -210 -1z m72 -285 c3 -74 6
-83 31 -105 41 -35 99 -33 138 5 27 27 29 35 29 105 l0 76 29 0 c110 0 346
-65 491 -135 447 -218 740 -630 805 -1132 l7 -53 -74 0 c-83 0 -112 -14 -133
-64 -18 -42 -8 -81 27 -111 26 -22 39 -25 104 -25 l75 0 -6 -57 c-53 -454
-308 -846 -705 -1083 -149 -88 -371 -162 -557 -184 l-53 -7 0 68 c0 83 -22
125 -73 142 -29 10 -42 9 -72 -3 -45 -19 -65 -64 -65 -146 l0 -61 -52 7 c-253
30 -498 128 -707 283 -150 111 -327 322 -410 488 -74 149 -131 333 -146 476
l-7 65 77 4 c72 3 79 6 106 36 20 22 29 43 29 67 0 24 -9 45 -29 67 -27 30
-34 33 -105 36 -89 5 -85 -4 -60 143 87 516 466 952 965 1114 109 35 235 62
300 64 l37 1 4 -81z"/>
<path d="M3429 2581 l-29 -29 0 -304 0 -303 -45 -24 c-105 -56 -169 -161 -169
-281 -1 -66 3 -84 32 -142 39 -79 93 -129 169 -158 71 -26 165 -26 236 0 65
24 142 96 169 158 l19 42 305 0 306 0 29 29 c33 33 38 75 15 120 -25 48 -44
51 -361 51 l-293 0 -30 54 c-32 56 -84 105 -139 131 l-33 16 0 147 c0 81 -3
218 -7 306 -6 148 -8 160 -31 187 -20 24 -31 29 -69 29 -36 0 -50 -6 -74 -29z"/>
<path d="M5092 2820 c-80 -50 -58 -167 35 -186 42 -8 91 19 108 60 39 92 -59
178 -143 126z"/>
<path d="M5638 2823 c-55 -35 -64 -105 -19 -155 l29 -33 152 0 152 0 29 33
c42 46 40 93 -5 138 l-34 34 -139 0 c-111 0 -143 -4 -165 -17z"/>
<path d="M1024 2796 c-40 -40 -44 -75 -14 -123 27 -45 72 -56 218 -52 121 4
122 4 153 35 36 36 42 88 14 130 -24 38 -54 44 -202 44 l-135 0 -34 -34z"/>
<path d="M1814 2820 c-60 -24 -73 -112 -25 -161 62 -62 171 -20 171 66 0 47
-13 71 -50 90 -32 17 -64 18 -96 5z"/>
<path d="M5641 2276 c-57 -32 -68 -111 -22 -157 l29 -29 152 0 152 0 29 29
c23 23 29 38 29 71 0 33 -6 48 -29 71 l-29 29 -144 0 c-99 -1 -150 -5 -167
-14z"/>
<path d="M1032 2255 c-39 -33 -48 -74 -27 -118 23 -50 49 -57 205 -57 139 0
140 0 171 28 26 24 32 36 32 72 0 36 -6 48 -32 72 -31 28 -32 28 -175 28 -140
0 -145 -1 -174 -25z"/>
<path d="M1060 1727 c-24 -8 -41 -23 -53 -49 -24 -48 -15 -89 25 -123 28 -24
35 -25 166 -25 153 0 175 7 205 58 17 29 18 39 8 73 -19 63 -45 74 -191 76
-80 2 -138 -2 -160 -10z"/>
<path d="M5637 1729 c-21 -12 -47 -61 -47 -89 0 -33 26 -75 55 -88 16 -8 79
-12 166 -12 l141 0 29 29 c23 23 29 38 29 71 0 33 -6 48 -29 71 l-29 29 -149
0 c-82 0 -156 -5 -166 -11z"/>
</g>
</svg>
